<?xml version="1.0" encoding="UTF-8"?>
<svg version="1.1" xmlns="http://www.w3.org/2000/svg" width="2500" height="2500">
<path d="M0 0 C825 0 1650 0 2500 0 C2500 825 2500 1650 2500 2500 C1675 2500 850 2500 0 2500 C0 1675 0 850 0 0 Z " fill="#000000" transform="translate(0,0)"/>
<path d="M0 0 C1.93963623 0.15275391 1.93963623 0.15275391 3.91845703 0.30859375 C62.71576166 5.04335868 122.32479224 13.79739794 172 48 C172.68416992 48.46083984 173.36833984 48.92167969 174.07324219 49.39648438 C184.30520423 56.29764563 193.82788279 63.74867844 203 72 C203.52964355 72.47324707 204.05928711 72.94649414 204.60498047 73.43408203 C214.30382069 82.11893896 223.62737683 90.9908147 231.74609375 101.19921875 C233.1991604 103.00484923 234.6893982 104.78147951 236.22265625 106.51953125 C265.61794746 140.03703358 283.63196058 182.3888322 295 225 C295.21052002 225.78181641 295.42104004 226.56363281 295.63793945 227.36914062 C296.91409554 232.11924871 298.16062255 236.87677357 299.39013672 241.63916016 C299.76899394 243.10575317 300.1503616 244.57170303 300.53564453 246.03662109 C304.67550596 261.88787937 307.1216684 278.18815161 309.49609375 294.38378906 C312.58824831 315.44437834 316.91041951 340.49099929 330 358 C330.66 358 331.32 358 332 358 C343.1845508 338.84348214 345.86855534 316.14137819 349.78105164 294.65068054 C351.50686228 285.18093888 353.38508343 275.74374934 355.32128906 266.31494141 C355.81171471 263.91961784 356.29745534 261.52333342 356.78027344 259.12646484 C368.00445157 203.42639792 388.15386465 151.00679939 425 107 C425.78632812 106.02933594 426.57265625 105.05867187 427.3828125 104.05859375 C433.85092348 96.19129757 440.88346542 88.90323504 448.0625 81.6875 C448.97209473 80.7687207 449.88168945 79.84994141 450.81884766 78.90332031 C456.90464814 72.84486929 463.25594777 67.31228831 470 62 C471.00317261 61.19985474 471.00317261 61.19985474 472.02661133 60.38354492 C483.08805653 51.63857023 494.85760611 44.1470741 507 37 C507.66322266 36.60828613 508.32644531 36.21657227 509.00976562 35.81298828 C536.45451407 19.82811734 567.82042886 10.2361059 599.3125 7.125 C600.91855075 6.96130266 602.52458871 6.79747978 604.13061523 6.63354492 C619.59644972 5.07439619 635.07970671 3.69083198 650.5625 2.3125 C651.77007965 2.20399719 652.9776593 2.09549438 654.22183228 1.98370361 C677.4524939 -0.09419005 700.45749063 -1.1868412 723.78369141 -1.18530273 C727.49523263 -1.18749718 731.20647935 -1.20576063 734.91796875 -1.22460938 C753.25343469 -1.26851005 771.23103504 -0.29572149 789.3125 2.875 C790.3219165 3.0507959 791.33133301 3.2265918 792.37133789 3.40771484 C795.25109392 3.92127555 798.1261408 4.45450382 801 5 C802.09489746 5.20399414 802.09489746 5.20399414 803.21191406 5.41210938 C826.21312734 9.8741862 849.96982921 19.04727197 863.609375 38.67578125 C884.95703092 70.70932596 887.73720461 109.49075464 887.3125 146.9375 C887.30095337 149.55793547 887.29118485 152.17837938 887.28320312 154.79882812 C887.2263438 166.75449841 886.99389007 178.67719752 886.37164307 190.61668396 C885.99094811 198.24319446 885.85195057 205.86504686 885.75390625 213.5 C885.73723404 214.76264175 885.72056183 216.02528351 885.7033844 217.32618713 C885.63733067 222.52209212 885.57537439 227.71799849 885.52319336 232.9140625 C885.2973478 254.50868436 884.49552225 275.67054275 880.1875 296.875 C879.99000153 297.86632935 879.99000153 297.86632935 879.78851318 298.87768555 C877.94906236 308.09069452 875.90620834 317.09867347 872.72021484 325.95410156 C871.88064553 328.33904763 871.10701703 330.74174167 870.33203125 333.1484375 C851.90738387 389.4378345 815.06320608 443.80552282 767 479 C766.05769531 479.73734375 765.11539063 480.4746875 764.14453125 481.234375 C734.6812607 504.15476754 699.67870355 520.16387659 663 527 C662.2177002 527.16081055 661.43540039 527.32162109 660.62939453 527.48730469 C635.04346953 532.72655891 591.04399522 535.19315297 568.1875 520.90625 C567.135625 520.1121875 566.08375 519.318125 565 518.5 C564.42241943 518.06421631 563.84483887 517.62843262 563.24975586 517.17944336 C561.47395506 515.81559143 559.73296173 514.41778824 558 513 C557.17072998 512.32541748 557.17072998 512.32541748 556.32470703 511.63720703 C549.09069079 505.64886892 543.49424405 499.33143489 539 491 C538.0409375 489.329375 538.0409375 489.329375 537.0625 487.625 C534.39374994 478.51985272 535.24906107 470.58221414 539.6809082 462.1706543 C557.42366799 431.63234874 601.71496617 416.35155166 631.8125 401.8125 C632.51523041 401.47301331 633.21796082 401.13352661 633.94198608 400.78375244 C637.37200367 399.12735634 640.80267733 397.47232118 644.23339844 395.81738281 C645.48893687 395.21159804 646.74447095 394.60580423 648 394 C649.09344727 393.47245117 650.18689453 392.94490234 651.31347656 392.40136719 C674.85283986 380.99866051 698.05936428 368.74398175 713.75 347.1875 C714.35416748 346.36072754 714.95833496 345.53395508 715.58081055 344.68212891 C721.54933201 336.40689068 726.92992525 327.84976577 732 319 C732.40057617 318.30729004 732.80115234 317.61458008 733.21386719 316.90087891 C742.09724491 301.38609267 748.94115326 284.43147222 753 267 C753.14808105 266.36690918 753.29616211 265.73381836 753.44873047 265.08154297 C759.72388449 237.09665266 757.37331215 206.2158733 742.97265625 181.0859375 C725.51629608 153.77796812 701.53553357 139.71700132 670.44995117 132.53125 C653.99146086 128.96237358 636.32318123 130.35955007 620 134 C618.73027344 134.2784375 617.46054688 134.556875 616.15234375 134.84375 C606.33977323 137.23756321 597.18390741 140.86170406 588 145 C587.33355469 145.29890137 586.66710938 145.59780273 585.98046875 145.90576172 C544.88862584 164.6382118 509.3336607 198.42421307 492.94775391 240.71582031 C488.95688324 251.58499297 485.77516135 262.65420458 483.41943359 273.9909668 C483.13520128 275.35240319 482.83553538 276.7106921 482.52197266 278.06567383 C480.61471334 286.7132135 479.87450876 295.51427185 479 304.3125 C478.86877243 305.61743408 478.86877243 305.61743408 478.7348938 306.94873047 C476.84605065 325.79369081 475.47828136 344.63677137 474.5019989 363.55072021 C474.31691556 367.13611739 474.12932674 370.72137834 473.94165039 374.30664062 C473.69352661 379.05228835 473.45709165 383.79830842 473.22827148 388.54492188 C470.96804008 433.58239395 467.26986655 482.28163317 433.0078125 515.3984375 C405.51756058 539.17572033 369.04734663 541.72793317 334.37591553 541.44952393 C331.53453239 541.4334534 328.69347537 541.44363851 325.85208225 541.45324802 C288.24475413 541.55492952 252.60944036 536.68611664 224 510 C221.06994481 506.82994029 218.49086637 503.52287391 216 500 C215.39542969 499.15953125 214.79085938 498.3190625 214.16796875 497.453125 C209.57513633 490.68895351 206.47390991 483.54543976 203.6953125 475.90429688 C203.03661181 474.1002711 202.34729144 472.30751153 201.65625 470.515625 C197.56659277 459.29400454 195.71766682 447.78259166 194 436 C193.78730469 434.54207031 193.78730469 434.54207031 193.5703125 433.0546875 C190.55395019 411.71250131 189.60094024 390.21734497 188.5390625 368.7109375 C188.38144804 365.53639523 188.22258773 362.36191851 188.0625 359.1875 C188.00290604 358.00448807 188.00290604 358.00448807 187.94210815 356.7975769 C187.10704119 340.43306265 185.81795345 324.12009346 184.33935547 307.80224609 C184.04283599 304.47994802 183.76791916 301.15703101 183.50390625 297.83203125 C182.6696417 287.79427018 180.97118992 278.66186945 178 269 C177.71382812 267.95070313 177.42765625 266.90140625 177.1328125 265.8203125 C168.47490573 235.09623626 149.62442297 208.93310563 128 186 C126.90558594 184.824375 126.90558594 184.824375 125.7890625 183.625 C106.06430527 163.09365418 78.24226076 146.0343265 51 138 C50.21383301 137.76168457 49.42766602 137.52336914 48.61767578 137.27783203 C17.36055087 128.17886801 -17.18983315 130.85584679 -45.99267578 146.05126953 C-67.29268771 157.86745529 -82.36174632 179.29157636 -89.296875 202.4296875 C-89.64492188 203.70199219 -89.64492188 203.70199219 -90 205 C-90.21140625 205.72445312 -90.4228125 206.44890625 -90.640625 207.1953125 C-96.16718077 227.32776567 -94.73009956 253.07011316 -89 273 C-88.76394043 273.83611816 -88.52788086 274.67223633 -88.28466797 275.53369141 C-80.16450723 303.52756597 -65.89606015 329.27641673 -46.11328125 350.69921875 C-44.20404395 352.77785234 -42.38023356 354.90420746 -40.5625 357.0625 C-22.72335751 377.37479633 1.44362679 390.53738924 26.27734375 400.28662109 C35.5433844 403.92858602 44.6152776 407.88959864 53.625 412.125 C54.31599792 412.44914886 55.00699585 412.77329773 55.71893311 413.10726929 C113.34259895 440.22882127 113.34259895 440.22882127 123.875 466.125 C126.43820451 474.8736621 126.48810193 485.04568084 122.12109375 493.16015625 C121.75113281 493.76730469 121.38117188 494.37445312 121 495 C120.443125 495.99 119.88625 496.98 119.3125 498 C107.93723587 512.75709941 92.27290976 520.29615652 75 526.25 C73.95187134 526.61943726 73.95187134 526.61943726 72.88256836 526.99633789 C38.47246009 538.40071836 0.66329698 528.18964936 -32 516 C-33.30517578 515.51877686 -33.30517578 515.51877686 -34.63671875 515.02783203 C-64.63723139 503.85706626 -92.45482222 487.56383398 -117 467 C-117.99386719 466.19046875 -118.98773437 465.3809375 -120.01171875 464.546875 C-134.57041357 452.52829044 -148.60516306 439.08481469 -160 424 C-160.76699219 423.03835938 -161.53398438 422.07671875 -162.32421875 421.0859375 C-184.62535812 393.0370818 -200.67065114 361.23944388 -211 327 C-211.37898437 325.74848145 -211.37898437 325.74848145 -211.765625 324.47167969 C-219.677085 297.62765638 -221.09455834 268.80864239 -223 241 C-223.05327454 240.22378296 -223.10654907 239.44756592 -223.16143799 238.64782715 C-225.51818987 203.80833683 -226.58223276 168.64886819 -223.26904297 133.84082031 C-223.02139491 131.22590847 -222.80486897 128.61055479 -222.59765625 125.9921875 C-219.89894808 94.12948402 -212.3339258 60.43885654 -192 35 C-191.53335938 34.36964844 -191.06671875 33.73929688 -190.5859375 33.08984375 C-172.73567964 10.17679346 -136.43574019 4.82753806 -109.4375 1.3125 C-106.53973016 0.96255233 -103.6409367 0.62891604 -100.73974609 0.30859375 C-98.21415232 0.02412124 -95.69598283 -0.29679736 -93.17578125 -0.625 C-62.51615961 -4.30773546 -30.70407968 -2.4917024 0 0 Z " fill="#FEFEFE" transform="translate(919,717)"/>
<path d="M0 0 C1.43279297 0.64001953 1.43279297 0.64001953 2.89453125 1.29296875 C24.69522919 11.49329531 43.31020866 28.40544878 51.82080078 51.19824219 C55.89061628 62.90849078 57.71441058 74.923692 59.046875 87.203125 C59.17437795 88.35577158 59.17437795 88.35577158 59.30445671 89.53170395 C61.43354498 109.01572034 62.2521956 128.55047159 63.0625 148.125 C63.98565502 170.1944776 64.91091508 192.10310283 68 214 C68.10232941 214.74342651 68.20465881 215.48685303 68.31008911 216.25280762 C70.76696755 233.89658885 74.631953 251.02141351 80 268 C80.47808105 269.51279541 80.47808105 269.51279541 80.96582031 271.05615234 C86.53329158 288.3885841 93.23891888 304.21808171 104 319 C104.37930664 319.5273877 104.75861328 320.05477539 105.14941406 320.59814453 C116.17113651 335.77875413 129.63190397 349.24047448 145 360 C145.57927246 360.4129834 146.15854492 360.8259668 146.75537109 361.25146484 C156.05165693 367.8524517 165.6498713 373.23913123 176 378 C176.71607422 378.33773438 177.43214844 378.67546875 178.16992188 379.0234375 C210.92495024 394.34944901 250.10451119 400.07036336 284.75 387.8125 C309.16137751 377.51590615 328.6471239 360.80250435 339 336 C351.19130944 302.36794184 348.76343923 263.56881632 334 231 C333.41774658 229.69603271 333.41774658 229.69603271 332.82373047 228.36572266 C318.73605846 197.0969275 299.11725237 169.11534053 271.64257812 148.25 C270.28917244 147.22005988 268.94760046 146.1745886 267.609375 145.125 C254.24498257 135.12574235 238.96859346 128.45106267 223 124 C211.92019172 120.64948446 201.54314748 116.06628721 191.125 111.0625 C190.50702545 110.76771759 189.8890509 110.47293518 189.25234985 110.16921997 C165.44063045 98.76394553 139.35708784 82.02025662 129.93359375 56.0625 C127.15631201 46.49769115 127.32478816 38.01176324 131.4375 28.875 C138.99187759 15.14792432 152.33068911 6.68771367 167 2 C178.24136974 -1.23034642 189.0162502 -3.14530237 200.73828125 -3.203125 C201.65852585 -3.20882507 202.57877045 -3.21452515 203.52690125 -3.22039795 C205.47080352 -3.22980222 207.41472141 -3.23636363 209.35864258 -3.24023438 C212.26608941 -3.24984656 215.17279948 -3.28087498 218.08007812 -3.3125 C234.75389743 -3.40729056 250.75910883 -1.6554921 266.65234375 3.5703125 C267.36116699 3.80266602 268.06999023 4.03501953 268.80029297 4.27441406 C269.52619629 4.51385742 270.25209961 4.75330078 271 5 C271.75297363 5.24202148 272.50594727 5.48404297 273.28173828 5.73339844 C311.53775669 18.10074868 347.12325004 37.66952768 376.77734375 64.9609375 C378.79562103 66.81250295 380.85349135 68.59833 382.9375 70.375 C390.87526615 77.30045994 398.25626575 84.9128394 405 93 C405.66008057 93.7734375 405.66008057 93.7734375 406.33349609 94.5625 C442.64958517 137.19494783 464.7732431 188.59742656 473.1875 243.6875 C473.35459473 244.76717041 473.52168945 245.84684082 473.69384766 246.95922852 C475.87442375 261.8605804 476.17569363 276.8447636 476.5 291.875 C476.56947996 295.08081812 476.64180663 298.2865394 476.71875 301.4921875 C476.73794495 302.29694519 476.75713989 303.10170288 476.7769165 303.93084717 C476.89139286 308.26553204 477.0845312 312.58142628 477.3793335 316.90847778 C478.34157808 331.28892792 478.22371614 345.71266758 478.24023438 360.11865234 C478.24460764 363.35867644 478.25848135 366.59843255 478.28125 369.83837891 C478.58389098 413.8153907 476.60778105 462.64449484 444 496 C414.54393512 523.94307278 371.72009508 526.13982854 333.484375 526.203125 C332.31720192 526.20595238 331.15002884 526.20877975 329.94748688 526.21169281 C323.75388877 526.22661481 317.56031349 526.2358848 311.36669922 526.24023438 C306.3246324 526.24459386 301.28273912 526.25839713 296.24072266 526.28125 C262.12105783 526.43265593 228.63660288 526.28327409 195 520 C193.90281647 519.79827682 192.80563293 519.59655365 191.67520142 519.38871765 C160.77765509 513.67270864 130.32612087 503.66976791 103 488 C101.18862658 487.03953899 99.37617503 486.08110769 97.5625 485.125 C83.82998752 477.5589333 71.2190703 468.81018507 59 459 C58.41573242 458.53432617 57.83146484 458.06865234 57.22949219 457.58886719 C49.07546007 451.03235973 41.60949465 443.80501653 34.1875 436.4375 C32.87990723 435.14392578 32.87990723 435.14392578 31.54589844 433.82421875 C-2.13976527 399.97185781 -24.58188427 356.63515802 -40.82373047 312.21630859 C-41.80944527 309.52103944 -42.80918744 306.83180265 -43.81640625 304.14453125 C-56.30667184 270.39841891 -61.91670133 234.68946569 -66.49389648 199.16699219 C-67.35411315 192.74940761 -68.37132697 186.64094769 -70.4375 180.5 C-70.74397461 179.52546875 -70.74397461 179.52546875 -71.05664062 178.53125 C-72.36533089 174.48694862 -73.77515463 170.62972315 -76 167 C-78.07690578 166.03955898 -78.07690578 166.03955898 -80 166 C-84.82859256 174.23235453 -87.00638294 182.77814124 -89 192 C-89.26683594 193.17691406 -89.53367187 194.35382813 -89.80859375 195.56640625 C-91.92165355 205.71566239 -92.92609043 215.95676749 -93.91040039 226.27026367 C-94.99920188 237.62181238 -96.26604967 248.91364597 -99 260 C-99.27279785 261.13195801 -99.5455957 262.26391602 -99.82666016 263.43017578 C-107.52218485 295.14880915 -107.52218485 295.14880915 -112 308 C-112.24540527 308.71269043 -112.49081055 309.42538086 -112.74365234 310.15966797 C-125.33800791 346.48095852 -143.58341278 381.22070144 -168 411 C-168.42555176 411.52029785 -168.85110352 412.0405957 -169.28955078 412.57666016 C-181.11022687 426.96573688 -193.71981475 441.01197932 -208 453 C-208.75385986 453.648479 -208.75385986 453.648479 -209.52294922 454.31005859 C-221.59217253 464.66555669 -234.58838334 473.47898304 -248 482 C-248.82371094 482.52368164 -249.64742187 483.04736328 -250.49609375 483.58691406 C-283.78821897 504.45765192 -322.15700086 516.87794562 -360.86621094 522.54077148 C-363.00346513 522.8539668 -365.13703174 523.19315943 -367.26660156 523.55493164 C-381.18970834 525.6758986 -395.20309268 525.18192574 -409.25 525.0625 C-430.42815095 524.8706851 -430.42815095 524.8706851 -451.58634949 525.62080383 C-462.73491891 526.26119443 -473.89856476 526.24326973 -485.0625 526.25 C-486.22954468 526.25100708 -487.39658936 526.25201416 -488.59899902 526.25305176 C-505.56787947 526.24316076 -522.25326913 526.01415172 -539 523 C-539.79470703 522.86078125 -540.58941406 522.7215625 -541.40820312 522.578125 C-564.59283637 518.3160988 -586.44232154 508.97905651 -603 492 C-603.73734375 491.27167969 -604.4746875 490.54335937 -605.234375 489.79296875 C-611.12337058 483.64147919 -615.08365213 476.48663913 -619 469 C-619.474375 468.09378906 -619.94875 467.18757813 -620.4375 466.25390625 C-626.6510985 453.49661182 -629.73512552 439.52502491 -631.64404297 425.54296875 C-631.88387992 423.82956568 -632.14109718 422.11851656 -632.41455078 420.41015625 C-637.83377846 386.34294823 -635.71494563 350.75828598 -633.63934326 316.45870972 C-633.59335999 315.69631989 -633.54737671 314.93393005 -633.5 314.1484375 C-633.45450012 313.39434601 -633.40900024 312.64025452 -633.36212158 311.86331177 C-632.91100714 304.05643861 -632.76194699 296.24791583 -632.60891724 288.43060303 C-632.30757656 273.46262947 -631.2324901 258.82240641 -629 244 C-628.78249155 242.45052933 -628.56504013 240.90105065 -628.34765625 239.3515625 C-618.08799898 169.66332443 -581.64693634 101.05167162 -525 58 C-523.83679175 57.08520457 -522.67406401 56.16979794 -521.51171875 55.25390625 C-490.62077917 31.19942108 -452.33519374 11.06180506 -414 2 C-412.77539062 1.70996094 -411.55078125 1.41992188 -410.2890625 1.12109375 C-386.47427223 -4.0462664 -358.6601136 -6.73480846 -335 0 C-333.89543457 0.31396729 -333.89543457 0.31396729 -332.76855469 0.63427734 C-315.15634926 5.76119252 -300.15929018 14.07602354 -290 30 C-285.64619037 38.41359576 -282.07759553 46.27627315 -284.80078125 55.80078125 C-297.39544834 88.47766666 -329.99469017 104.51689903 -360 118 C-364.90711407 120.14729449 -369.82780072 122.26260226 -374.75 124.375 C-402.76946706 136.40026154 -430.72016433 148.66096353 -453 170 C-453.86625 170.825 -454.7325 171.65 -455.625 172.5 C-456.40875 173.325 -457.1925 174.15 -458 175 C-458.60328125 175.63164063 -459.2065625 176.26328125 -459.828125 176.9140625 C-482.14159737 201.0160193 -493.97627171 237.55793843 -501 269 C-501.18981445 269.79768799 -501.37962891 270.59537598 -501.57519531 271.41723633 C-503.30152105 279.49838639 -503.37226478 287.53133014 -503.37060547 295.7590332 C-503.37496156 298.16625716 -503.4113458 300.57161612 -503.44921875 302.97851562 C-503.62128345 326.75511618 -495.48783366 347.97167189 -480 366 C-479.49210938 366.60457031 -478.98421875 367.20914062 -478.4609375 367.83203125 C-464.72269426 382.87364628 -442.56683921 392.15995535 -422.50927734 393.17700195 C-418.46425252 393.24448176 -414.42055956 393.29824674 -410.375 393.3125 C-409.64134216 393.31545074 -408.90768433 393.31840149 -408.15179443 393.32144165 C-395.71068349 393.33280696 -384.0807316 392.10905611 -372 389 C-370.52660156 388.6596875 -370.52660156 388.6596875 -369.0234375 388.3125 C-366.30909083 387.640216 -363.66738054 386.84069192 -361 386 C-360.30600098 385.79068848 -359.61200195 385.58137695 -358.89697266 385.36572266 C-334.16150084 377.86227392 -308.6030745 367.25885935 -289 350 C-287.77603516 348.95585938 -287.77603516 348.95585938 -286.52734375 347.890625 C-250.53007895 316.51124734 -234.56071136 270.62012798 -226 225 C-225.81405273 224.03835938 -225.62810547 223.07671875 -225.43652344 222.0859375 C-220.65905238 197.18412831 -218.97703263 171.94939421 -218.45516968 146.63815308 C-218.1839137 133.73693249 -217.59194318 120.86797501 -216.81567383 107.9871521 C-216.69055984 105.90404824 -216.56886259 103.82073577 -216.45092773 101.73721313 C-214.75243184 71.99390445 -209.97893771 41.30675736 -187.6875 19.625 C-139.89571247 -21.85740131 -55.73666203 -26.28166691 0 0 Z " fill="#FEFEFE" transform="translate(1328,1307)"/>
<path d="M0 0 C0.7621582 0.30808594 1.52431641 0.61617187 2.30957031 0.93359375 C34.42215616 14.12342449 61.72542202 34.70960728 86.9375 58.25 C87.63544678 58.89936523 88.33339355 59.54873047 89.05249023 60.21777344 C93.08699625 64.0255349 96.82863728 67.97516251 100.4387207 72.18701172 C102.43276615 74.50253659 104.53018864 76.71315083 106.625 78.9375 C122.76601546 96.6901751 136.30589669 117.1024239 148 138 C148.41894531 138.7321875 148.83789062 139.464375 149.26953125 140.21875 C151.07656174 144.62519869 149.66917087 149.31685648 147.9765625 153.57421875 C145.30068765 158.87183225 141.96389286 163.48861249 138.12304688 167.99316406 C137.64624229 168.55362553 137.16943771 169.11408699 136.67818451 169.69153214 C130.90243163 176.38928975 124.66855851 182.62076867 118.40625 188.859375 C117.1252387 190.14173891 115.84452395 191.42439911 114.56408691 192.70733643 C111.90158425 195.37276023 109.23556957 198.03460422 106.56689453 200.69384766 C103.17481876 204.07450745 99.79183707 207.4641031 96.41144562 210.8564415 C93.7759956 213.49917226 91.13573449 216.13705538 88.49406433 218.7735672 C87.24568125 220.02063212 85.99873735 221.26913971 84.75337219 222.51921844 C78.19872006 229.09324621 71.62104991 235.3771774 64.32507324 241.13360596 C62.09923723 242.92033981 60.01409871 244.7933544 57.9375 246.75 C47.11673635 256.46343236 34.60640087 264.79846358 22 272 C21.37335449 272.3604541 20.74670898 272.7209082 20.10107422 273.09228516 C-14.95160709 293.0652502 -55.53397946 299.96760806 -94.78515625 289.2421875 C-117.28867716 282.76125806 -137.39298386 272.14636623 -156 258 C-156.63550781 257.51998535 -157.27101563 257.0399707 -157.92578125 256.54541016 C-165.61629196 250.7078667 -172.89004379 244.53617027 -180 238 C-181.3292238 236.82865335 -182.66238407 235.66175407 -184 234.5 C-187.8944137 231.10809129 -191.7272427 227.65033942 -195.55859375 224.1875 C-197.70496212 222.26435394 -199.87636442 220.37755581 -202.0625 218.5 C-205.00092895 215.94587262 -207.76348239 213.26926227 -210.5 210.5 C-213.8064837 207.15408634 -217.20146536 204.00772434 -220.76953125 200.9453125 C-224.54152475 197.65555285 -228.1990835 194.2399772 -231.875 190.84375 C-234.17482604 188.73148913 -236.51809226 186.67660537 -238.87890625 184.6328125 C-269.71388125 157.71722729 -269.71388125 157.71722729 -271.875 142 C-272.02582031 141.071875 -272.02582031 141.071875 -272.1796875 140.125 C-271.6079202 133.36323016 -266.59844641 129.39978281 -261.875 125.1875 C-260.43394533 123.86964645 -258.99522654 122.54923508 -257.55859375 121.2265625 C-256.81206543 120.53981445 -256.06553711 119.85306641 -255.29638672 119.14550781 C-251.42916498 115.53237315 -247.67891171 111.80515415 -243.9375 108.0625 C-243.24833496 107.37760498 -242.55916992 106.69270996 -241.84912109 105.98706055 C-241.18605957 105.32230713 -240.52299805 104.65755371 -239.83984375 103.97265625 C-238.97927368 103.11039429 -238.97927368 103.11039429 -238.10131836 102.23071289 C-236.31877695 100.33840653 -234.62710027 98.40895188 -232.93481445 96.43701172 C-228.26119499 91.07145087 -223.23054552 86.06628209 -218.203125 81.03515625 C-217.16324048 79.992048 -216.12342663 78.94886929 -215.0836792 77.90562439 C-212.91367073 75.72966501 -210.74164327 73.55574438 -208.56835938 71.38305664 C-205.81237638 68.62717505 -203.06333297 65.86448329 -200.31602859 63.09995365 C-198.1728012 60.94549451 -196.02492896 58.79571041 -193.87581635 56.64712334 C-192.86172769 55.63187117 -191.84922044 54.61503637 -190.83847809 53.59645271 C-184.96674756 47.68344306 -178.938371 42.12972952 -172.40472412 36.94480896 C-170.15714851 35.12709309 -168.04110782 33.23093489 -165.9375 31.25 C-141.88587486 9.76160312 -112.69201019 -5.24791813 -81 -11 C-79.55693481 -11.26611084 -79.55693481 -11.26611084 -78.0847168 -11.53759766 C-51.69738076 -15.49308752 -24.42609429 -9.92277914 0 0 Z " fill="#FEFEFE" transform="translate(656,1134)"/>
<path d="M0 0 C0.77633789 0.30389648 1.55267578 0.60779297 2.35253906 0.92089844 C20.61443619 8.30232626 36.95997449 20.4384639 52 33 C52.87495117 33.73065674 52.87495117 33.73065674 53.76757812 34.47607422 C60.84101433 40.41447953 67.7432944 46.52460056 74.55078125 52.765625 C76.69924699 54.72562883 78.86883807 56.65344491 81.0625 58.5625 C87.65903836 64.30743607 94.16798225 70.09542615 100.3046875 76.33203125 C102.69621733 78.68498802 105.2257122 80.86035258 107.765625 83.05078125 C111.34822534 86.17616162 114.84189922 89.39869422 118.3515625 92.60546875 C120.49823677 94.54634092 122.67065555 96.43834217 124.875 98.3125 C138.11554396 109.92510823 152.2118951 123.46041573 157 141 C157.33713739 146.30165069 156.4859793 149.93590037 153 154 C150.41631608 156.07648423 147.73846585 157.94943549 145.0078125 159.828125 C140.98600022 162.73218685 137.4207586 166.02663155 133.80078125 169.41015625 C131.72591584 171.32875565 129.63283351 173.16855948 127.484375 175 C121.96618578 179.80981256 116.83666564 185.01394818 111.67260742 190.19702148 C109.941053 191.933936 108.20421641 193.66543889 106.46679688 195.39648438 C99.84149678 201.98372492 99.84149678 201.98372492 93.58203125 208.9140625 C88.60685718 214.74199256 83.10124591 220.08474282 77.68603516 225.49926758 C75.76303818 227.42444702 73.84819426 229.35749031 71.93359375 231.29101562 C64.926641 238.32960209 57.81177474 244.85443714 50 251 C48.93622447 251.89731713 47.87763701 252.80088481 46.828125 253.71484375 C12.89081794 282.97291605 -28.90298486 295.97362109 -73.4609375 292.72265625 C-112.1497957 288.602646 -146.84917887 269.65995989 -177 246 C-177.96035156 245.25363281 -178.92070313 244.50726562 -179.91015625 243.73828125 C-194.74334226 231.91979284 -208.63937051 218.36396207 -221 204 C-221.81428467 203.05374756 -221.81428467 203.05374756 -222.64501953 202.08837891 C-263.06283266 154.72777906 -263.06283266 154.72777906 -265.28515625 137.83203125 C-263.34729955 120.25533101 -247.13701748 106.83455901 -235.27734375 95.046875 C-233.96379076 93.73451778 -232.65061126 92.42178664 -231.33778381 91.10870361 C-228.60352136 88.3759939 -225.86596979 85.64663993 -223.12573242 82.91992188 C-219.63191577 79.44313529 -216.1447593 75.95976105 -212.65982723 72.4740715 C-209.95507558 69.76959301 -207.24771633 67.06773763 -204.53949165 64.36673737 C-203.25323487 63.08363778 -201.96756088 61.79995368 -200.68250847 60.51564789 C-194.29494959 54.13586808 -187.93599596 47.79143211 -181 42 C-180.36050919 41.46010941 -179.72101837 40.92021881 -179.06214905 40.3639679 C-151.01971607 16.75993029 -120.21207926 -2.39950057 -84 -10 C-82.39511719 -10.34417969 -82.39511719 -10.34417969 -80.7578125 -10.6953125 C-53.58026953 -15.70727497 -25.35359729 -9.93397491 0 0 Z " fill="#FEFEFE" transform="translate(1959,1134)"/>
<path d="M0 0 C5.72339037 3.24903575 10.31327422 8.13571705 15.0625 12.625 C16.30550194 13.71635571 17.55486364 14.80054111 18.8125 15.875 C29.80850132 25.48550515 40.22800138 35.68929637 50.5625 46 C51.08078369 46.5156955 51.59906738 47.03139099 52.13305664 47.56271362 C57.42463636 52.83343641 62.61104317 58.1370734 67.47070312 63.81494141 C70.18481734 66.90120564 73.12700305 69.75132868 76.0625 72.625 C80.41180435 76.92400355 84.62485138 81.25121987 88.57421875 85.92578125 C90.07455945 87.63876866 91.66087057 89.18346624 93.3125 90.75 C121.23793692 118.36307186 139.96696828 159.24381089 140.44360352 198.51855469 C140.36092789 250.75632063 119.62474043 297.14339182 86.0625 336.625 C85.2890625 337.58277344 84.515625 338.54054688 83.71875 339.52734375 C76.81166105 347.97852457 69.19325109 355.71004035 61.5 363.4375 C60.96947021 363.97320618 60.43894043 364.50891235 59.89233398 365.06085205 C52.95136814 372.05511518 45.80022475 378.50302342 38.0625 384.625 C30.41698976 390.87777972 23.1760457 397.3922048 16.25 404.4375 C-0.55639986 421.48573396 -0.55639986 421.48573396 -11.25 421.6875 C-28.86289119 416.61259915 -42.42628456 401.40157664 -55 388.8125 C-55.54070129 388.27120453 -56.08140259 387.72990906 -56.63848877 387.17221069 C-62.09311776 381.69467703 -67.48451993 376.19097213 -72.48413086 370.28833008 C-74.60266794 367.86373859 -76.90847311 365.64409211 -79.20556641 363.39013672 C-80.94428626 361.61808364 -82.5449906 359.77753216 -84.1484375 357.8828125 C-87.85946895 353.61502832 -91.89411922 349.8140732 -96.0625 346 C-117.73179881 325.84722242 -136.78924411 302.8179227 -148.9375 275.625 C-149.35056396 274.70388428 -149.35056396 274.70388428 -149.77197266 273.76416016 C-165.95860897 237.02956961 -165.74210862 197.22400314 -151.41894531 159.90893555 C-144.84592994 143.51047723 -136.29989757 127.92820961 -125.9375 113.625 C-125.17695312 112.57183594 -124.41640625 111.51867187 -123.6328125 110.43359375 C-115.93847323 100.01029332 -107.68873331 90.20627039 -98.84375 80.75390625 C-96.31768037 78.05104464 -93.87344081 75.28456277 -91.4375 72.5 C-87.61885878 68.22312183 -83.49766781 64.4132732 -79.24047852 60.5871582 C-75.82165121 57.49440244 -72.72874638 54.30145553 -69.76953125 50.7734375 C-67.44474859 48.04714654 -65.00129678 45.43614852 -62.5625 42.8125 C-59.14941044 39.1300618 -55.9131784 35.39146587 -52.8125 31.4375 C-43.90618016 20.4129203 -33.36524942 8.64218931 -20.9375 1.625 C-20.34195312 1.27308594 -19.74640625 0.92117188 -19.1328125 0.55859375 C-13.23173027 -2.47352915 -6.0674871 -2.62344217 0 0 Z " fill="#FEFEFE" transform="translate(1259.9375,415.375)"/>
<path d="M0 0 C2.78358351 1.48651692 5.27744191 3.31503033 7.8125 5.1875 C8.92975464 5.99574219 8.92975464 5.99574219 10.06958008 6.8203125 C17.95418364 12.58543477 25.51912346 18.72430163 33 25 C33.93851807 25.78189697 33.93851807 25.78189697 34.89599609 26.57958984 C41.83495051 32.37082921 48.46282884 38.29854878 54.77734375 44.77734375 C56.76023549 46.76023549 58.79026883 48.57479609 60.9375 50.375 C65.88047424 54.6160719 70.12581546 59.48898368 74.47314453 64.3203125 C76.60444375 66.66494612 78.77781971 68.96895472 80.94873047 71.27685547 C86.92109071 77.63890656 92.56470986 84.16891256 98 91 C98.93106797 92.14032315 99.86343387 93.27958739 100.796875 94.41796875 C108.32153167 103.63669035 115.33687882 113.14106036 122 123 C122.52158691 123.76892578 123.04317383 124.53785156 123.58056641 125.33007812 C145.75045841 158.31008276 151.57976582 195.07843861 144 234 C142.9355034 239.09621319 141.60320117 244.05002938 140 249 C139.61183105 250.2072876 139.61183105 250.2072876 139.21582031 251.43896484 C133.06582955 270.1912248 124.69493203 288.03585006 113 304 C112.24332031 305.04027344 111.48664063 306.08054687 110.70703125 307.15234375 C99.48434317 322.29460427 86.0782908 335.62389672 71.625 347.6875 C67.72409947 351.0515024 64.61888087 354.95476242 61.41796875 358.9765625 C58.8369456 362.20388385 56.18115813 365.35602843 53.5 368.5 C50.20396028 372.36779019 46.97640329 376.27252157 43.8125 380.25 C12.98202853 417.9993385 12.98202853 417.9993385 -5.68359375 420.3359375 C-7.04677734 420.35527344 -7.04677734 420.35527344 -8.4375 420.375 C-9.34371094 420.40335938 -10.24992187 420.43171875 -11.18359375 420.4609375 C-23.05854902 418.51746354 -35.69680044 401.39830276 -43.875 393.25 C-45.21220093 391.91980835 -45.21220093 391.91980835 -46.57641602 390.56274414 C-50.99886183 386.12951491 -55.28049042 381.64034079 -59.35986328 376.88964844 C-62.14938852 373.6757566 -65.08166877 370.59653451 -68 367.5 C-72.76641548 362.41412134 -77.47743911 357.30531181 -82 352 C-83.95729319 349.70744332 -85.91580571 347.41593219 -87.875 345.125 C-88.39360596 344.51825439 -88.91221191 343.91150879 -89.4465332 343.28637695 C-93.22956016 338.87116521 -97.08516481 334.5287834 -100.9921875 330.22265625 C-103.40861387 327.54766286 -105.77260824 324.83003634 -108.1328125 322.10546875 C-109.49886234 320.56509038 -110.89377452 319.05017521 -112.3046875 317.55078125 C-123.20797819 305.91720785 -131.654062 293.12449324 -139 279 C-139.53004639 277.98099609 -139.53004639 277.98099609 -140.07080078 276.94140625 C-158.90701765 240.15558723 -162.12834651 198.55936963 -149.79296875 159.14453125 C-143.63186472 140.75851805 -133.60301216 124.62992972 -121 110 C-120.01544112 108.8530224 -119.0310761 107.70587837 -118.046875 106.55859375 C-116.49068906 104.74558306 -114.93380366 102.93321089 -113.37402344 101.12329102 C-109.83184572 97.00412488 -106.41399805 92.80367176 -103.04296875 88.54296875 C-99.27823519 83.85684725 -95.36787854 79.29287591 -91.46630859 74.72070312 C-89.99057585 72.98894083 -88.5203988 71.25257806 -87.05078125 69.515625 C-72.1397897 51.93802463 -56.51930926 33.84968401 -38 20 C-37.47374023 19.60264648 -36.94748047 19.20529297 -36.40527344 18.79589844 C-9.29900139 -1.56114622 -9.29900139 -1.56114622 0 0 Z " fill="#FEFEFE" transform="translate(1255,1717)"/>
<path d="M0 0 C6.03192601 1.98905535 10.83294128 6.72199264 15.546875 10.83984375 C16.86751953 11.9690625 16.86751953 11.9690625 18.21484375 13.12109375 C20.71010847 15.31089681 23.1332547 17.56052665 25.546875 19.83984375 C26.87138672 21.05027344 26.87138672 21.05027344 28.22265625 22.28515625 C41.97753932 35.32019395 55.78196107 54.44971315 56.8828125 73.99609375 C57.44799782 101.13430553 45.70904494 126.80067428 27.09960938 146.30322266 C19.75624821 153.57037913 9.76233053 161.44627345 -0.890625 162.02734375 C-10.69729716 158.75845303 -18.77772154 153.70464355 -26.453125 146.83984375 C-27.59394531 145.82277344 -27.59394531 145.82277344 -28.7578125 144.78515625 C-45.34583337 129.11550331 -57.37253826 105.04406971 -58.078125 82.02734375 C-56.74028112 55.32863333 -41.43075658 34.3599845 -23.453125 15.83984375 C-22.63457031 14.98132813 -21.81601563 14.1228125 -20.97265625 13.23828125 C-7.58946875 -0.53649693 -7.58946875 -0.53649693 0 0 Z " fill="#010101" transform="translate(1250.453125,544.16015625)"/>
<path d="M0 0 C2.421875 1.3984375 2.421875 1.3984375 4.75 3.375 C5.60851563 4.10332031 6.46703125 4.83164063 7.3515625 5.58203125 C10.8945192 8.81667756 14.27272987 12.19025478 17.625 15.62109375 C20.32504984 18.32558446 23.16391177 20.80314387 26.06640625 23.28515625 C28.86672862 25.76867447 31.45786 28.44256755 34.0703125 31.12109375 C35.78661773 32.79223305 37.52888574 34.18694271 39.4375 35.625 C49.46729991 44.16295324 55.85404307 58.33553801 57.24560547 71.28564453 C57.86881368 80.60270441 57.17680021 89.17413168 54 98 C53.6596875 99.08410156 53.319375 100.16820312 52.96875 101.28515625 C45.70082878 123.45722673 30.6469937 143.3721326 11 156 C10.07380859 156.63615234 10.07380859 156.63615234 9.12890625 157.28515625 C4.67049151 160.15789923 0.28100027 161.75081314 -5 161 C-27.86576954 150.6527304 -46.21133086 126.49431434 -55.34375 103.63671875 C-61.34815989 86.41692896 -59.97481961 70.46769178 -52.36572266 54.10595703 C-44.36627569 37.60635843 -33.04338272 23.5441972 -18.62109375 12.2109375 C-15.22557767 9.34676149 -12.40068563 6.1534198 -9.55859375 2.75 C-6.68692875 -0.47432562 -4.17340606 -0.35977638 0 0 Z " fill="#010101" transform="translate(1251,1842)"/>
<path d="M0 0 C2.44592637 1.90302356 4.85326032 3.84811336 7.25 5.8125 C8.57064453 6.85857422 8.57064453 6.85857422 9.91796875 7.92578125 C16.49137081 13.3904167 24.38671489 21.59742022 27.25 29.8125 C27.79546017 36.0050772 26.80541988 40.04604979 23.9375 45.5 C23.58139648 46.18916504 23.22529297 46.87833008 22.85839844 47.58837891 C11.20985994 69.1695098 -9.77949637 83.4690536 -32.75 90.8125 C-52.31812117 96.15222025 -71.84321849 89.36759107 -88.75 79.8125 C-105.24796141 70.22946954 -124.805629 56.26644618 -133.75 38.8125 C-134.85689291 34.04434594 -133.68073936 31.2341381 -131.4375 27.0625 C-118.23236832 6.79629096 -87.74299562 -15.62269005 -64.2890625 -21.83984375 C-40.53036414 -25.09295783 -18.57991629 -13.99598234 0 0 Z " fill="#000000" transform="translate(1949.75,1239.1875)"/>
<path d="M0 0 C9.918995 7.03093911 18.62226271 15.28304252 26.97827148 24.08789062 C31.01251331 28.28028941 35.02821892 31.57691945 40.02172852 34.58032227 C42.24822033 36.17813171 43.5581891 37.67381208 45 40 C45.98612951 46.35505687 44.43873001 50.11222522 40.9453125 55.43359375 C34.22748439 64.2962706 25.52524161 71.02119331 16.72851562 77.68603516 C15.09549018 78.92741128 13.47693823 80.18776086 11.859375 81.44921875 C0.95170039 89.85840769 -9.8025339 95.92454605 -23 100 C-23.79019531 100.2475 -24.58039063 100.495 -25.39453125 100.75 C-41.19392739 104.97098895 -57.21440125 100.81473139 -71.0625 92.85546875 C-77.48284705 88.80006336 -82.99133349 84.18583699 -88.265625 78.7421875 C-90.05062673 76.94914522 -91.90200958 75.28330569 -93.8125 73.625 C-94.80830078 72.75875 -94.80830078 72.75875 -95.82421875 71.875 C-97.38172755 70.53280211 -98.94784944 69.2005735 -100.51953125 67.875 C-107.23640063 62.0745251 -113.50488388 56.27350307 -115.3125 47.25 C-115.82246357 35.06753701 -104.50148651 24.05975544 -96.8828125 15.66796875 C-69.01905838 -13.47159829 -34.67569873 -23.34903913 0 0 Z " fill="#000000" transform="translate(638,1231)"/>
</svg>
